<svg xmlns="http://www.w3.org/2000/svg" width="378.333" height="59.424" viewBox="0 0 378.333 59.424">
  <g id="logo-opas-oms" transform="translate(-3.8 -6.4)">
    <path id="Caminho_2" data-name="Caminho 2" d="M211.706,44.4c0-.99-.424-1.273-.849-1.273a1,1,0,0,0-.99,1.132v5.235H207.6V44.4c0-.99-.424-1.273-.849-1.273-.707,0-.99.707-.99,1.839v4.528H203.5V41.141h2.122v1.415h0A2.046,2.046,0,0,1,207.745,41a2,2,0,0,1,1.981,1.415A1.885,1.885,0,0,1,211.706,41c1.7,0,2.122,1.415,2.122,2.971v5.518h-2.264" transform="translate(82.847 14.354)" fill="#398ab4"/>
    <path id="Caminho_3" data-name="Caminho 3" d="M218.45,46.035h-4.386a1.706,1.706,0,0,0,1.839,1.839,3.812,3.812,0,0,0,2.122-.707v1.839a6.609,6.609,0,0,1-2.405.424c-2.547,0-3.82-1.839-3.82-4.386,0-2.264,1.132-4.245,3.254-4.245.707,0,3.254,0,3.254,4.386m-1.839-.566c0-.99-.283-1.981-1.132-1.981-1.132,0-1.132,1.556-1.132,1.981Z" transform="translate(86.291 14.271)" fill="#398ab4"/>
    <path id="Caminho_4" data-name="Caminho 4" d="M217.4,42.839v-1.7h2.122V42.7h0c.424-.849.707-1.7,2.122-1.7h.283v2.405c-.283,0-.424-.141-.707-.141-1.273,0-1.415,1.273-1.415,2.547v3.679h-2.264" transform="translate(88.614 14.354)" fill="#398ab4"/>
    <path id="Caminho_5" data-name="Caminho 5" d="M221.4,38.5h2.264v2.264H221.4m0,1.415h2.264v8.348H221.4Z" transform="translate(90.273 13.317)" fill="#398ab4"/>
    <path id="Caminho_6" data-name="Caminho 6" d="M229.518,49.248a9.554,9.554,0,0,1-1.981.283c-2.83,0-3.537-2.688-3.537-4.245,0-2.547,1.273-4.386,3.679-4.386a4.357,4.357,0,0,1,1.839.424l-.141,1.839a4.132,4.132,0,0,0-1.273-.283c-1.7,0-1.7,2.122-1.7,2.405,0,1.7.99,2.264,1.839,2.264a2.282,2.282,0,0,0,1.273-.424" transform="translate(91.352 14.313)" fill="#398ab4"/>
    <path id="Caminho_7" data-name="Caminho 7" d="M229.207,41.566A10.032,10.032,0,0,1,231.613,41c2.547,0,3.254,1.273,3.254,3.113v5.518h-2.122V48.5h0a2.124,2.124,0,0,1-1.981,1.273,2.24,2.24,0,0,1-2.264-2.547c0-2.83,2.83-2.83,3.679-2.83h.707c0-1.556-.99-1.556-1.415-1.556a4.067,4.067,0,0,0-2.122.707m3.4,1.839c-.849,0-2.264,0-2.264,1.415,0,1.132.849,1.132.99,1.132s1.273,0,1.273-2.122v-.424Z" transform="translate(93.219 14.354)" fill="#398ab4"/>
    <path id="Caminho_8" data-name="Caminho 8" d="M238.611,43.347a3.916,3.916,0,0,0-1.839-.424c-.566,0-.849.283-.849.566,0,.566.283.707,1.556,1.132a2.315,2.315,0,0,1,1.556,2.405,2.41,2.41,0,0,1-2.688,2.547,7.186,7.186,0,0,1-2.405-.424V47.167a3.112,3.112,0,0,0,1.839.566c.99,0,1.132-.424,1.132-.849s-.566-.566-1.556-.99a2.606,2.606,0,0,1-1.556-2.547,2.58,2.58,0,0,1,2.83-2.547,6.893,6.893,0,0,1,2.122.283" transform="translate(95.418 14.271)" fill="#398ab4"/>
    <line id="Linha_6" data-name="Linha 6" x1="120.122" transform="translate(262.012 48.138)" fill="none"/>
    <rect id="Retângulo_126" data-name="Retângulo 126" width="120.122" height="0.99" transform="translate(262.012 47.572)" fill="#398ab4"/>
    <path id="Caminho_9" data-name="Caminho 9" d="M188.666,14.711c1.132,1.273,2.971,1.981,4.1,3.254a9.945,9.945,0,0,0-7.357-7.5c1.839,1.273,2.264,2.971,3.254,4.245m-42.3,9.338c2.405-5.093,6.084-3.962,7.64-8.772-.849,1.415-4.811,2.122-6.65,5.942.99-2.264.424-5.659,1.981-7.64-4.669,3.4-2.688,8.772-2.971,10.47m4.386,12.168c.424,1.981-.849,4.811,1.132,7.5-2.122-2.264-6.508-2.83-8.348-6.225,2.264,8.489,8.206,6.65,10.894,8.489-2.122-2.971-.424-4.952-3.679-9.763m-.707,5.376c-1.273-4.669.99-6.367-.707-10.894-.142,2.547-1.981,3.82-.707,8.489-2.122-3.962-5.376-5.376-6.225-8.065,0,7.357,6.084,8.348,7.64,10.47m9.621,7.923c-1.839-2.405-.566-3.82-5.659-8.206,1.132,1.556,0,3.679,3.4,6.791-3.4-1.981-8.065-1.132-10.328-3.679,3.82,7.074,10.611,4.1,12.592,5.093M184.28,47.96c3.4-3.113,2.264-5.093,3.4-6.791-5.094,4.386-3.82,5.8-5.659,8.206,1.981-.849,8.631,1.981,12.592-5.093-2.264,2.688-6.933,1.839-10.328,3.679m5.376-4.1c1.981-2.688.707-5.518,1.132-7.5-3.254,4.669-1.415,6.791-3.679,9.763,2.688-1.839,8.631-.141,10.894-8.489-1.839,3.4-6.225,3.962-8.348,6.225M181.45,49.8a30.541,30.541,0,0,0-5.659-.849,13.708,13.708,0,0,0-5.094.849,14.239,14.239,0,0,0-5.094-.849,20.993,20.993,0,0,0-5.518.849c-3.113.849-5.8,1.415-8.065.283,2.264,1.839,4.811,2.547,8.489,2.122,3.113-.283,5.659-1.839,8.631-1.839h.141c-3.113,1.556-6.791,3.679-6.791,3.679l1.415.141a20.263,20.263,0,0,1,6.933-3.679,3.345,3.345,0,0,1,2.971,3.679l1.415-.141s.141-2.122-2.83-3.679h.141c2.971,0,5.518,1.415,8.631,1.839,3.679.424,6.367-.283,8.489-2.122-2.405,1.132-5.094.424-8.206-.283M149.616,25.6c-1.273,2.405-3.254,2.83-2.971,7.64-1.132-4.245-3.537-5.942-3.537-8.631-1.7,7.216,2.971,8.065,4.1,11.036-.283-4.245,2.547-5.093,2.405-10.046m1.7-5.518a8.609,8.609,0,0,1-1.981,1.839,9.6,9.6,0,0,0-3.4,5.376c.142-2.688-1.556-6.367-.424-9.2-4.386,5.942.283,9.48.424,11.6,1.132-4.1,3.679-4.245,5.376-9.621M195.6,27.3a9.6,9.6,0,0,0-3.4-5.376c-1.132-.99-1.556-1.132-1.981-1.839,1.7,5.376,4.245,5.518,5.376,9.621.141-2.122,4.811-5.659.424-11.6,1.273,2.688-.424,6.508-.424,9.2m3.679,3.679c-.99,2.688-4.245,4.1-6.367,8.065,1.132-4.669-.566-5.942-.707-8.489-1.839,4.528.566,6.084-.707,10.894,1.556-1.981,7.782-2.971,7.782-10.47M192.062,25.6c-.283,4.952,2.547,5.8,2.405,10.046,1.273-2.971,5.942-3.82,4.1-11.036,0,2.688-2.547,4.386-3.537,8.631.283-4.811-1.7-5.235-2.971-7.64m-39.05-10.894c1.132-1.273,1.415-2.971,3.113-4.245a9.739,9.739,0,0,0-7.357,7.5c1.132-1.273,3.113-1.981,4.245-3.254m34.664.566c1.556,4.811,5.094,3.82,7.64,8.772-.283-1.7,1.7-7.074-2.971-10.47,1.556,1.839,1.132,5.376,2.122,7.64-1.981-3.82-5.942-4.386-6.791-5.942m-12.309,2.688a9.238,9.238,0,0,0-2.83-.707v.566a14.923,14.923,0,0,1,2.688.707c0-.141.142-.283.142-.566m-.707-5.942.142-.141-.424-.141h-.99l-.283.141h-.566v.141a2.1,2.1,0,0,1,.99.141h.424Zm-1.839,20.091c0-.141-.283-.283-.566-.424h0v1.132c.283-.283.566-.424.566-.707M161.642,20.228c0-.141,0-.283.141-.283h-.424Zm9.2,27.448c10.894,0,19.667-8.489,19.667-18.959A19.184,19.184,0,0,0,172.819,9.9v.141c0,.141-.141.283-.141.566a18.76,18.76,0,0,1,11.46,5.235l-2.122,2.122.142-.424-.283-.141h-.424l.141-.283-.283-.849-.566-.566-1.7-.849-.142.141-.283.141a5,5,0,0,1,.849,2.688v.424l.849.99-.424.141.283.424-.707.707-.283-.566a4.236,4.236,0,0,1-.566,1.132l.141.141L176.5,23.483l-.424-.424c-.283.141-.424.141-.707.283l.141.141-.141.141-.283.141-.141.283-.141-.141-.424.141.141.141.283-.141h.283v-.141l.142-.141v-.141l.283-.141h.283l.141.141-.849.849v-.141l-.99.141-.141.141h-.141l.566-.566-.141-.141-.566.707h.141V24.9l.141.141v.283h-.566l-.849-.424v3.254c1.981.707,4.1,1.556,4.1,3.962a2.694,2.694,0,0,1-1.415,2.547h0a10.347,10.347,0,0,1-2.688.99v1.7c1.415.707,3.113,1.7,2.971,4.528,0,.707-.283.849-.566.99l-2.547.424v.566a16.6,16.6,0,0,0,9.9-4.245l2.264,2.264a19.543,19.543,0,0,1-26.316,0l2.264-2.264a15.709,15.709,0,0,0,9.763,4.1v-.566a15.164,15.164,0,0,1-9.2-3.962l.566-.566.849.141.424-.424h1.132l.141-.424v-.141a10.938,10.938,0,0,0,5.942,2.264v-.566a11.422,11.422,0,0,1-6.367-2.83l2.264-2.264a8.021,8.021,0,0,0,1.839,1.132,1.073,1.073,0,0,1,.283-.566,10.552,10.552,0,0,1-1.7-.99l2.264-2.264a3.71,3.71,0,0,0,1.273.707v-.707a3.092,3.092,0,0,1-.707-.424l.707-.566c-.283,0-.424-.141-.707-.141l-.424.424a2.959,2.959,0,0,1-.566-.849,8.4,8.4,0,0,1-1.132-.566,4.1,4.1,0,0,1-2.122-3.679,4.261,4.261,0,0,1,.99-2.83l-2.264-2.264a11.032,11.032,0,0,1,6.084-2.83V17.4a10.867,10.867,0,0,0-6.508,3.113l-.424-.424c-.141.141-.141.283-.283.566l.283.283a10.812,10.812,0,0,0-3.254,7.64h-3.254a14.147,14.147,0,0,1,4.245-9.9l.99.99h.141a.851.851,0,0,0,.566-.141l-1.273-1.273a8.632,8.632,0,0,1,2.264-1.7,1.425,1.425,0,0,1,.142-.424c0-.141.283-.283.424-.707a14.7,14.7,0,0,0-3.4,2.405l-2.264-2.264a19.027,19.027,0,0,1,11.319-5.093v-.141a.52.52,0,0,0-.141-.424c-9.9.99-17.686,9.055-17.686,18.818-.566,10.47,8.206,18.959,19.1,18.959m4.245-13.158h0M184.7,15.984a17.551,17.551,0,0,1,5.235,12.451h-3.254a14.943,14.943,0,0,0-1.7-6.65h0l.283.141v-.141l-.566-.99L184,19.945l-.849-.707c-.283-.283-.566-.707-.849-.99Zm-4.245,3.962h.849l.141.283-.141.283,1.132.707h.283l1.415,1.556.566-.141a14.119,14.119,0,0,1,1.415,5.942h-3.254a13.939,13.939,0,0,0-.283-2.405l.142-.141.141-.99-.141-.99-.424-1.273-.849-1.415.283.141.141-.141-.707-.424v.141l.707.99.424.849.283.849.142.566.141.99h-.283l-.424-.849.141-.141-.283-.424v-.424l-.141-.283h-.283c-.142-.141-.142-.283-.283-.424l.141.141h0l-.141-.141.283-.141-.142-.141-.283.141.141-.424-.141-.141-.142.424a12.37,12.37,0,0,0-1.132-1.415Zm-.566,7.357.566-.283.566-.141.142-.283.283-.141.141-.283.142-.424c0,.141.141.283.141.424l-.283.849V27.3l.424-.566a6.887,6.887,0,0,1,.142,1.7h-2.83v-.283l.283-.283v-.141l.141-.141h.424v-.141Zm-3.962-2.122h.283l-.283-.141.141-.566.283-.283a2.484,2.484,0,0,1,.566.707l-.142.424-.283-.283h-.283l.142.283h.141l-.141.283-.142-.141Zm1.273,10.328-.707-.141-.141.141-.424-.283-.424-.141c.141-.141.424-.283.566-.424l.566.424.424.283.142.141Zm-.283-12.026,2.264-2.264a9.084,9.084,0,0,1,1.415,1.839l-.283.141v.424l.849.566a4.237,4.237,0,0,1,.566,1.415l-.141.141-.283.141-.141.424-.142.141-.141.141h-.424l.142-.283.141-.566.141-.141-.566-.566-.424.141-.141.424-.283.283-.283-.283-.141-.283.141-.141.141.141h.141v-.283h-.141v.141h-.141l-.707-.849-.283-.141.141-.141.283-.141-.141-.141H178.2l.141.141h-.424a.787.787,0,0,1-.99-.424m1.132,11.743-.283-.283.283-.283.283-.566-.141-.141.141-.424V33.1l-.141-.424-.283-.141-.142.283h-.141a4.964,4.964,0,0,0,.707-1.132l.283-.141.141-.141.141.141.142-.283-.142-.141h.142l.283.141h.566l.283-.141.849-.141-.141-.283v-.283l.424.141.141-.141-.141-.283-.566.141-.566-.141-.424-.849H182.3a10.857,10.857,0,0,1-3.113,7.074l-.283-.283.142-.424-.283-.99Zm.424,6.084.283-.566-.141-.283.424-.424v-.283l-.424-.283.283-.566.424-.566-.424-.424h-.424l-.283-.283c.141-.141.424-.283.566-.424l2.264,2.264a13.193,13.193,0,0,1-2.547,1.839m2.83-2.971.283-.283-.283-1.273h-.141l.141-.141-.566-.141-.141.424v.566l-.142.141-.99-.99a10.74,10.74,0,0,0,3.254-7.5h3.254a14.427,14.427,0,0,1-4.245,9.763Zm.99.849A15.1,15.1,0,0,0,186.827,29h3.254A17.685,17.685,0,0,1,184.7,41.31Zm-19.525-2.971-.707-.707.141-.849-.283-.707-.141-1.132-.424-.707.142-.424-.424-.849-.424-.141.141-.424-.141-.424.141-.424h.424l.141-.283h.707l.141.141-.141.707-.142.141.283.566-.141.141-.142-.141h0l.142.283.283.424h.141v-.424l-.141-.141v-.849l.141-.849-.141-.283h.566a8.051,8.051,0,0,0,2.264,4.952Zm-2.264-6.084-.283.424h-.566a4.813,4.813,0,0,1-.141-1.415h.99l-.283.707Zm1.132-2.122v-.566l.424-.283.707.141.141.141c0,.283-.141.707-.141,1.132h-.707Zm3.254,2.264.141-.141.424.283-.141.141.424.283v-.283l.283-.424.283.283.283.424-.424.141.283.424.283-.141v-.141l.283-.141.141-.707a4.964,4.964,0,0,0,.707,1.132L165.6,33.67a6.63,6.63,0,0,1-1.981-4.1l.424.424h.424Zm-2.264-9.055,2.264,2.264-1.273,1.7h-.142l-.283.141h-.142l-.283.283h.424l.424-.141V25.6l-.283.141H163.2l-.566.424h-.424l-.707,1.273.141.283-.424.424v.566H159.8a8.973,8.973,0,0,1,2.83-7.5m-2.971,16.7.707.424.142.141-.566.566c-.283-.283-.424-.566-.707-.707Zm-.707-8.772a1.8,1.8,0,0,0,.141.849l-.424.141-.141.424-.849.99v1.415l-.849.283h-.424a13.145,13.145,0,0,1-.707-4.1h3.254ZM155.7,33.1h-.142l-.141-.141-.849-.141.283.424L154,33.1l.283-.141-.142-.141-.566.283-.283.424-.141.566.707,1.556.283.566h.141l-.566-.99-.141-.424.141-.141v-.283H154l.424.707h.142v-.566l.141.141v.283l.566.141.283-.141h.142v.424l.283.283h.283l.566.99.424.141.141-.424a14.2,14.2,0,0,0,2.264,2.83L157.4,41.451A18.434,18.434,0,0,1,151.88,29h3.254a9.967,9.967,0,0,0,.566,4.1m1.415-17.12,2.264,2.264a14.678,14.678,0,0,0-4.386,10.328h-3.254a17.759,17.759,0,0,1,5.376-12.592M180.6,14.852l-.142-.283-.424-.141-.283.283.424.283.424.283Zm-1.981,8.772v.283l.566-.141.141-.283-.424-.424.142-.283.566.424.141-.141-.141-.141-.141-.283.283-.141-.141-.283-.424.283-.142.283-.141.283.283.283-.142.141ZM155.134,37.631h0l-.283-.707-.283-.141Zm13.3-11.743c0,.566.283.849.99,1.273v-.283L169,26.454l.141-.424h.141V24.615h0c-.566.424-.849.707-.849,1.273" transform="translate(57.5 1.452)" fill="#398ab4"/>
    <path id="Caminho_10" data-name="Caminho 10" d="M163.3,31.073a4.036,4.036,0,0,1,2.405,2.405,3.6,3.6,0,0,0-2.264-3.679c0,.141-.141,1.273-.141,1.273" transform="translate(66.17 9.708)" fill="#398ab4"/>
    <path id="Caminho_11" data-name="Caminho 11" d="M172.124,16.752c0-1.981-1.415-4.1-5.094-4.811-.283,0-.707-.141-1.132-.141v2.122a1.06,1.06,0,0,1,.707.141c2.122.424,2.83,1.7,2.83,2.83,0,1.839-1.7,2.547-3.679,3.113-.283,0-.424.141-.707.141-.566.141-1.273.283-1.839.424-.283,0-.424.141-.707.141-2.264.707-4.1,1.7-4.1,4.386s2.264,3.679,4.386,4.245V27.08c-.99-.424-1.556-.99-1.556-1.981s.566-1.415,1.556-1.839c.141-.141.424-.141.707-.283l1.7-.424c.283,0,.424-.141.707-.141,2.83-.849,6.225-1.7,6.225-5.659" transform="translate(64.137 2.24)" fill="#398ab4"/>
    <path id="Caminho_12" data-name="Caminho 12" d="M160.4,30.657c0,1.132.849,1.7,1.7,2.122V30.94a.94.94,0,0,1,.566-.707l1.273-.424c.283-.141.424-.141.707-.283,1.7-.424,3.537-1.132,3.537-2.971,0-1.981-1.7-2.688-3.4-3.254v2.122c.707.283,1.273.566,1.273,1.132,0,.707-.707,1.132-1.273,1.273-.283.141-.566.141-.707.283l-1.273.424c-.283.141-.424.141-.707.283-.849.283-1.7.849-1.7,1.839" transform="translate(64.967 7.011)" fill="#398ab4"/>
    <path id="Caminho_13" data-name="Caminho 13" d="M163.606,12c-1.132.283-1.7.707-1.981.707a5.68,5.68,0,0,0-2.688,1.273c-.141.141-.566.707-.99,1.132-.283.424-.283,1.132-.566,1.556a2.19,2.19,0,0,0-.283.849h0a7.356,7.356,0,0,1-.424.707,1.141,1.141,0,0,1-1.273.424c.424.283,1.132-.141,1.132-.141a4.56,4.56,0,0,0-.283.849,6.051,6.051,0,0,1,1.132-1.7,3.076,3.076,0,0,0,1.556-.424,12.191,12.191,0,0,0,2.83-1.981,4.88,4.88,0,0,1,1.7-1.273A8.7,8.7,0,0,0,163.606,12m-4.1,3.679-.566.141.566-.99h.707Z" transform="translate(62.893 2.323)" fill="#398ab4"/>
    <path id="Caminho_14" data-name="Caminho 14" d="M162.99,28.441c-.142,0-.283.141-.566.141a1.425,1.425,0,0,0-.424.141s.141,8.206.141,8.489c0,1.7.849,1.7.849,0,0-.141.141-8.914.141-8.914a.139.139,0,0,1-.142.141" transform="translate(65.631 9.085)" fill="#398ab4"/>
    <path id="Caminho_15" data-name="Caminho 15" d="M162.041,29.28c.283-.141.566-.141.849-.283.142,0,.424-.141.566-.141,0-.566.141-7.64.141-9.055a14.681,14.681,0,0,0-1.7.424c0,1.132.141,8.206.141,9.055" transform="translate(65.589 5.559)" fill="#398ab4"/>
    <path id="Caminho_16" data-name="Caminho 16" d="M162.982,7c-2.547,0-1.415,3.537-1.273,4.811,0,0,.141,8.206.283,10.045.424-.141.707-.141,1.132-.283a6.128,6.128,0,0,0,.707-.141c0-1.839.283-9.48.283-9.621C164.256,10.537,165.671,7,162.982,7" transform="translate(65.356 0.249)" fill="#398ab4"/>
    <path id="Caminho_17" data-name="Caminho 17" d="M190.169,10.2c2.405,0,4.669,1.981,4.669,6.65s-2.264,6.65-4.669,6.65-4.669-1.981-4.669-6.65,2.122-6.65,4.669-6.65m0,11.46c1.415,0,2.405-1.273,2.405-4.811s-1.132-4.811-2.405-4.811-2.405,1.273-2.405,4.811.99,4.811,2.405,4.811" transform="translate(75.38 1.576)" fill="#398ab4"/>
    <path id="Caminho_18" data-name="Caminho 18" d="M193,14.3V12.741h1.839v1.7h0c.283-.707.849-1.839,2.122-1.839h.283v2.122c-.142,0-.424-.141-.566-.141-.849,0-1.839.566-1.839,2.405v5.235H193" transform="translate(78.491 2.572)" fill="#398ab4"/>
    <path id="Caminho_19" data-name="Caminho 19" d="M197.024,23.877a4.849,4.849,0,0,0,2.547.849c1.981,0,2.264-1.556,2.264-2.971v-.849h0a2.25,2.25,0,0,1-2.264,1.556c-1.132,0-2.971-.849-2.971-4.811,0-2.688.849-4.952,3.113-4.952a2.465,2.465,0,0,1,2.264,1.7h0V12.841h1.839v8.631c0,2.971-.849,5.093-3.962,5.093A9.889,9.889,0,0,1,196.883,26M200,20.623c1.273,0,1.839-.99,1.839-3.254,0-1.981-.707-3.113-1.7-3.113-1.132,0-1.556,1.132-1.556,3.113.141,2.264.707,3.254,1.415,3.254" transform="translate(79.985 2.614)" fill="#398ab4"/>
    <path id="Caminho_20" data-name="Caminho 20" d="M203.349,13.307a5.612,5.612,0,0,1,2.688-.707c2.688,0,3.254,1.415,3.254,3.82v4.245a5.831,5.831,0,0,0,.141,1.7h-1.839a3.916,3.916,0,0,1-.142-1.273h0a2.58,2.58,0,0,1-2.405,1.415,2.612,2.612,0,0,1-2.547-2.83c0-2.547,1.839-3.254,4.528-3.254h.424V16c0-.99-.424-1.839-1.556-1.839a3.786,3.786,0,0,0-2.405.99m3.962,2.547h-.142c-1.7,0-2.83.424-2.83,1.839a1.306,1.306,0,0,0,1.273,1.415c1.273,0,1.7-.99,1.7-2.688v-.566Z" transform="translate(82.433 2.572)" fill="#398ab4"/>
    <path id="Caminho_21" data-name="Caminho 21" d="M208.5,14.3V12.741h1.981v1.415h0a2.426,2.426,0,0,1,2.264-1.556c1.981,0,2.547,1.556,2.547,3.537v6.225h-2.122v-5.8c0-1.415-.283-2.122-1.132-2.122-1.132,0-1.415.99-1.415,2.264v5.659H208.5" transform="translate(84.922 2.572)" fill="#398ab4"/>
    <path id="Caminho_22" data-name="Caminho 22" d="M214.5,9.8h2.122v2.264H214.5m0,1.839h2.122v9.621H214.5Z" transform="translate(87.411 1.411)" fill="#398ab4"/>
    <path id="Caminho_23" data-name="Caminho 23" d="M217.1,20.34l3.679-5.8h-3.537V12.7h5.518v1.981l-3.537,5.942H222.9v1.7h-5.8" transform="translate(88.49 2.614)" fill="#398ab4"/>
    <path id="Caminho_24" data-name="Caminho 24" d="M222.649,13.307a5.612,5.612,0,0,1,2.688-.707c2.688,0,3.254,1.415,3.254,3.82v4.245a5.829,5.829,0,0,0,.142,1.7h-1.839a3.917,3.917,0,0,1-.141-1.273h0a2.58,2.58,0,0,1-2.405,1.415,2.612,2.612,0,0,1-2.547-2.83c0-2.547,1.839-3.254,4.528-3.254h.424V16c0-.99-.424-1.839-1.556-1.839a3.786,3.786,0,0,0-2.405.99m3.962,2.547h-.141c-1.7,0-2.83.424-2.83,1.839a1.306,1.306,0,0,0,1.273,1.415c1.273,0,1.7-.99,1.7-2.688Z" transform="translate(90.439 2.572)" fill="#398ab4"/>
    <path id="Caminho_25" data-name="Caminho 25" d="M233.342,22.038a5.94,5.94,0,0,1-1.981.424h-.142l-.283.99a6.129,6.129,0,0,1,.707-.141,1.337,1.337,0,0,1,1.415,1.415,1.746,1.746,0,0,1-1.839,1.7,2.72,2.72,0,0,1-1.7-.424l.283-.707a2.665,2.665,0,0,0,1.132.283c.566,0,.849-.283.849-.707a.668.668,0,0,0-.707-.707,1.06,1.06,0,0,0-.707.141l-.283-.283.566-1.556c-2.264-.424-3.254-2.405-3.254-4.811,0-2.688,1.273-4.952,4.1-4.952a5.878,5.878,0,0,1,1.839.424l-.141,1.839a4.152,4.152,0,0,0-1.415-.424c-1.556,0-2.264,1.132-2.264,3.254,0,1.839.707,3.113,2.405,3.113a3.35,3.35,0,0,0,1.415-.424" transform="translate(92.763 2.614)" fill="#398ab4"/>
    <path id="Caminho_26" data-name="Caminho 26" d="M233.149,14.3a5.612,5.612,0,0,1,2.688-.707c2.688,0,3.254,1.415,3.254,3.82V21.66a5.831,5.831,0,0,0,.141,1.7h-1.839a3.917,3.917,0,0,1-.141-1.273h0a2.58,2.58,0,0,1-2.405,1.415,2.612,2.612,0,0,1-2.547-2.83c0-2.547,1.839-3.254,4.528-3.254h.424v-.424c0-.99-.424-1.839-1.556-1.839a3.786,3.786,0,0,0-2.405.99m.283-3.679c0-.707.283-2.122,1.556-2.122.707,0,1.415.566,1.981.566.283,0,.424-.424.424-.707h.99c0,.566-.283,2.122-1.556,2.122-.707,0-1.273-.566-1.839-.566-.424,0-.566.283-.566.707Zm3.679,6.225h-.142c-1.7,0-2.83.424-2.83,1.839a1.306,1.306,0,0,0,1.273,1.415c1.273,0,1.7-.99,1.7-2.688v-.566Z" transform="translate(94.795 1.576)" fill="#398ab4"/>
    <path id="Caminho_27" data-name="Caminho 27" d="M241.92,12.6c1.7,0,3.82.99,3.82,4.952s-1.981,4.952-3.82,4.952c-1.7,0-3.82-.99-3.82-4.952.141-3.962,2.122-4.952,3.82-4.952m0,8.348c1.273,0,1.556-1.7,1.556-3.254s-.283-3.254-1.556-3.254-1.7,1.7-1.7,3.254c.141,1.415.424,3.254,1.7,3.254" transform="translate(97.202 2.572)" fill="#398ab4"/>
    <path id="Caminho_28" data-name="Caminho 28" d="M195.4,25.122h-.141l-2.83,10.894h-1.556l-2.688-10.894h-.141V36.017H186.2V23h3.113l2.405,9.621h0L194.123,23h3.113V36.017H195.4" transform="translate(75.67 6.887)" fill="#398ab4"/>
    <path id="Caminho_29" data-name="Caminho 29" d="M201.991,33.365v1.556h-1.981V33.506h0a2.551,2.551,0,0,1-2.264,1.556c-1.981,0-2.547-1.556-2.547-3.537V25.3h2.122v5.8q0,2.122,1.273,2.122c1.132,0,1.415-1.132,1.415-2.405V25.3h2.122" transform="translate(79.404 7.841)" fill="#398ab4"/>
    <path id="Caminho_30" data-name="Caminho 30" d="M201.2,27V25.441h1.981v1.415h0a2.426,2.426,0,0,1,2.264-1.556c1.981,0,2.547,1.556,2.547,3.537v6.225h-2.122v-5.8c0-1.415-.283-2.122-1.132-2.122-1.132,0-1.415.99-1.415,2.264v5.659H201.2" transform="translate(81.893 7.841)" fill="#398ab4"/>
    <path id="Caminho_31" data-name="Caminho 31" d="M214.316,22.3V36.307h-1.981V34.751h0a2.325,2.325,0,0,1-2.264,1.7c-2.122,0-2.971-2.264-2.971-4.952,0-3.113,1.132-4.952,2.971-4.952a2.39,2.39,0,0,1,2.264,1.556h0V22.3m-1.7,12.451c1.273,0,1.7-1.415,1.7-3.254s-.424-3.254-1.556-3.254-1.556,1.273-1.556,3.113c-.141,2.264.142,3.4,1.415,3.4" transform="translate(84.341 6.596)" fill="#398ab4"/>
    <path id="Caminho_32" data-name="Caminho 32" d="M213.3,22.5h2.122v2.264H213.3m.141,1.839h2.122v9.621h-2.122Z" transform="translate(86.913 6.679)" fill="#398ab4"/>
    <path id="Caminho_33" data-name="Caminho 33" d="M216.749,26.007a5.612,5.612,0,0,1,2.688-.707c2.688,0,3.254,1.415,3.254,3.82v4.245a5.831,5.831,0,0,0,.141,1.7h-1.839a3.917,3.917,0,0,1-.141-1.273h0a2.58,2.58,0,0,1-2.405,1.415,2.612,2.612,0,0,1-2.547-2.83c0-2.547,1.839-3.254,4.528-3.254h.424V28.7c0-.99-.424-1.839-1.556-1.839a3.786,3.786,0,0,0-2.405.99m3.82,2.405h-.141c-1.7,0-2.83.424-2.83,1.839a1.306,1.306,0,0,0,1.273,1.415c1.273,0,1.7-.99,1.7-2.688Z" transform="translate(87.992 7.841)" fill="#398ab4"/>
    <rect id="Retângulo_127" data-name="Retângulo 127" width="2.122" height="14.007" transform="translate(312.664 28.896)" fill="#398ab4"/>
    <path id="Caminho_34" data-name="Caminho 34" d="M235.216,22.3V36.307h-1.981V34.751h0a2.325,2.325,0,0,1-2.264,1.7c-2.122,0-2.971-2.264-2.971-4.952,0-3.113,1.132-4.952,2.971-4.952a2.39,2.39,0,0,1,2.264,1.556h0V22.3m-1.7,12.451c1.273,0,1.556-1.415,1.556-3.254s-.424-3.254-1.556-3.254-1.556,1.273-1.556,3.113c0,2.264.283,3.4,1.556,3.4" transform="translate(93.012 6.596)" fill="#398ab4"/>
    <path id="Caminho_35" data-name="Caminho 35" d="M234.849,26.007a5.612,5.612,0,0,1,2.688-.707c2.688,0,3.254,1.415,3.254,3.82v4.245a5.829,5.829,0,0,0,.142,1.7h-1.839a3.916,3.916,0,0,1-.142-1.273h0a2.58,2.58,0,0,1-2.405,1.415A2.612,2.612,0,0,1,234,32.374c0-2.547,1.839-3.254,4.528-3.254h.424V28.7c0-.99-.424-1.839-1.556-1.839a3.786,3.786,0,0,0-2.405.99m3.962,2.405h-.141c-1.7,0-2.83.424-2.83,1.839a1.306,1.306,0,0,0,1.273,1.415c1.273,0,1.7-.99,1.7-2.688Z" transform="translate(95.501 7.841)" fill="#398ab4"/>
    <path id="Caminho_36" data-name="Caminho 36" d="M243.224,33.511a4.3,4.3,0,0,0,2.405.849,1.606,1.606,0,0,0,1.7-1.839c0-.99-.424-1.273-1.556-1.981l-1.132-.707a3.652,3.652,0,0,1-1.839-3.4,3.452,3.452,0,0,1,3.679-3.537,10.556,10.556,0,0,1,2.405.424l-.142,1.981a4.219,4.219,0,0,0-2.122-.566,1.357,1.357,0,0,0-1.556,1.556c0,.99.566,1.273,1.273,1.7l1.273.849a3.508,3.508,0,0,1,1.981,3.537,3.6,3.6,0,0,1-3.82,3.962,4.755,4.755,0,0,1-2.688-.566" transform="translate(99.151 6.845)" fill="#398ab4"/>
    <path id="Caminho_37" data-name="Caminho 37" d="M249.249,26.007a5.612,5.612,0,0,1,2.688-.707c2.688,0,3.254,1.415,3.254,3.82v4.245a5.831,5.831,0,0,0,.141,1.7h-1.839a3.917,3.917,0,0,1-.141-1.273h0a2.58,2.58,0,0,1-2.405,1.415,2.612,2.612,0,0,1-2.547-2.83c0-2.547,1.839-3.254,4.528-3.254h.424V28.7c0-.99-.424-1.839-1.556-1.839a3.786,3.786,0,0,0-2.405.99m3.962,2.405h-.142c-1.7,0-2.83.424-2.83,1.839a1.306,1.306,0,0,0,1.273,1.415c1.273,0,1.7-.99,1.7-2.688v-.566Z" transform="translate(101.475 7.841)" fill="#398ab4"/>
    <path id="Caminho_38" data-name="Caminho 38" d="M260.991,34.443V36H259.01V34.585h0a2.551,2.551,0,0,1-2.264,1.556c-1.981,0-2.547-1.556-2.547-3.537V26.379h2.122v5.8q0,2.122,1.273,2.122c1.132,0,1.415-1.132,1.415-2.405V26.379h2.122m-3.4-3.679h1.981l-1.7,2.688h-1.273Z" transform="translate(103.881 6.762)" fill="#398ab4"/>
    <path id="Caminho_39" data-name="Caminho 39" d="M267.416,22.3V36.307h-1.981V34.751h0a2.326,2.326,0,0,1-2.264,1.7c-2.122,0-2.971-2.264-2.971-4.952,0-3.113,1.132-4.952,2.971-4.952a2.39,2.39,0,0,1,2.264,1.556h0V22.3M263.6,34.751c1.273,0,1.7-1.415,1.7-3.254s-.424-3.254-1.556-3.254-1.556,1.273-1.556,3.113c0,2.264.283,3.4,1.415,3.4" transform="translate(106.37 6.596)" fill="#398ab4"/>
    <path id="Caminho_40" data-name="Caminho 40" d="M272.808,34.538a6.736,6.736,0,0,1-2.547.566c-2.83,0-3.962-2.264-3.962-4.811,0-2.83,1.415-5.093,3.537-5.093,1.839,0,3.4,1.273,3.4,5.093v.424h-4.952c0,1.7.566,2.688,2.122,2.688a3.5,3.5,0,0,0,2.264-.707m-1.415-3.254c0-1.7-.566-2.547-1.415-2.547-1.132,0-1.556,1.273-1.556,2.547Z" transform="translate(108.901 7.799)" fill="#398ab4"/>
    <path id="Caminho_41" data-name="Caminho 41" d="M142.1,43.4h2.122v.707h-1.415v1.415h1.273v.707h-1.273v1.415h1.415v.707H142.1Z" transform="translate(57.375 15.35)" fill="#398ab4"/>
    <path id="Caminho_42" data-name="Caminho 42" d="M144.083,47.362a1.2,1.2,0,0,0,.849.283.647.647,0,0,0,.566-.707c0-.424-.141-.566-.566-.707l-.424-.283a1.486,1.486,0,0,1-.707-1.273,1.188,1.188,0,0,1,1.273-1.273,5,5,0,0,1,.849.141v.707a1.06,1.06,0,0,0-.707-.141.518.518,0,0,0-.566.566.654.654,0,0,0,.424.707l.424.283a1.486,1.486,0,0,1,.707,1.273,1.38,1.38,0,0,1-1.415,1.556,2.045,2.045,0,0,1-.99-.283Z" transform="translate(58.08 15.35)" fill="#398ab4"/>
    <path id="Caminho_43" data-name="Caminho 43" d="M148.688,48.252c-.141.141-.566.141-.849.141-1.273,0-1.839-1.132-1.839-2.547s.707-2.547,1.839-2.547a5,5,0,0,1,.849.141v.849a1.081,1.081,0,0,0-.707-.283c-.566,0-1.132.566-1.132,1.839s.566,1.839,1.132,1.839a.831.831,0,0,0,.707-.283Z" transform="translate(58.993 15.308)" fill="#398ab4"/>
    <path id="Caminho_44" data-name="Caminho 44" d="M148.2,43.4h1.273a1.187,1.187,0,0,1,1.273,1.273c0,.707-.283,1.132-.849,1.132h0c.141,0,.283.141.424.566l.566,1.839h-.849l-.424-1.556c-.141-.424-.283-.566-.566-.566h-.141v2.122H148.2V43.4Zm.99,2.122a.668.668,0,0,0,.707-.707c0-.566-.283-.707-.707-.707h-.283v1.415Z" transform="translate(59.906 15.35)" fill="#398ab4"/>
    <rect id="Retângulo_128" data-name="Retângulo 128" width="0.707" height="4.952" transform="translate(211.218 58.75)" fill="#398ab4"/>
    <path id="Caminho_45" data-name="Caminho 45" d="M152.149,44.107H151.3V43.4h2.547v.707H153v4.245h-.849Z" transform="translate(61.192 15.35)" fill="#398ab4"/>
    <path id="Caminho_46" data-name="Caminho 46" d="M154.8,43.4c.849,0,1.7.707,1.7,2.547s-.849,2.547-1.7,2.547-1.7-.707-1.7-2.547.707-2.547,1.7-2.547m0,4.386c.424,0,.849-.424.849-1.839s-.424-1.839-.849-1.839-.849.424-.849,1.839c-.141,1.273.283,1.839.849,1.839" transform="translate(61.939 15.35)" fill="#398ab4"/>
    <path id="Caminho_47" data-name="Caminho 47" d="M155.8,43.4h1.273a1.187,1.187,0,0,1,1.273,1.273c0,.707-.283,1.132-.849,1.132h0c.142,0,.283.141.424.566l.566,1.839h-.849l-.424-1.556c-.142-.424-.283-.566-.566-.566h-.142v2.122H155.8V43.4Zm.99,2.122a.668.668,0,0,0,.707-.707c0-.566-.283-.707-.707-.707h-.283v1.415Z" transform="translate(63.059 15.35)" fill="#398ab4"/>
    <rect id="Retângulo_129" data-name="Retângulo 129" width="0.707" height="4.952" transform="translate(221.971 58.75)" fill="#398ab4"/>
    <path id="Caminho_48" data-name="Caminho 48" d="M160.6,43.4c.849,0,1.7.707,1.7,2.547s-.849,2.547-1.7,2.547-1.7-.707-1.7-2.547.849-2.547,1.7-2.547m0,4.386c.424,0,.849-.424.849-1.839s-.424-1.839-.849-1.839-.849.424-.849,1.839c0,1.273.424,1.839.849,1.839" transform="translate(64.345 15.35)" fill="#398ab4"/>
    <path id="Caminho_49" data-name="Caminho 49" d="M162.6,43.4h1.273a1.187,1.187,0,0,1,1.273,1.273c0,.707-.283,1.132-.849,1.132h0c.141,0,.283.141.424.566l.566,1.839h-.707l-.424-1.556c-.141-.424-.283-.566-.566-.566h-.141v2.122h-.707V43.4Zm1.132,2.122a.668.668,0,0,0,.707-.707c0-.566-.283-.707-.707-.707h-.283v1.415Z" transform="translate(65.88 15.35)" fill="#398ab4"/>
    <path id="Caminho_50" data-name="Caminho 50" d="M164.8,43.4h2.264v.707h-1.415v1.415h1.273v.707h-1.273v1.415h1.415v.707H164.8Z" transform="translate(66.792 15.35)" fill="#398ab4"/>
    <path id="Caminho_51" data-name="Caminho 51" d="M168.539,45.664h1.273v2.547a1.828,1.828,0,0,1-1.132.283c-1.273,0-1.981-1.132-1.981-2.547s.707-2.547,1.981-2.547a7.977,7.977,0,0,1,.99.141v.849a2.045,2.045,0,0,0-.99-.283c-.849,0-1.273.849-1.273,1.839,0,1.132.424,1.839,1.132,1.839a.52.52,0,0,0,.424-.141V46.371h-.424Z" transform="translate(67.581 15.35)" fill="#398ab4"/>
    <rect id="Retângulo_130" data-name="Retângulo 130" width="0.707" height="4.952" transform="translate(238.101 58.75)" fill="#398ab4"/>
    <path id="Caminho_52" data-name="Caminho 52" d="M172,43.4c.849,0,1.7.707,1.7,2.547s-.849,2.547-1.7,2.547-1.7-.707-1.7-2.547c.141-1.839.849-2.547,1.7-2.547m0,4.386c.424,0,.849-.424.849-1.839s-.424-1.839-.849-1.839-.849.424-.849,1.839.424,1.839.849,1.839" transform="translate(69.074 15.35)" fill="#398ab4"/>
    <path id="Caminho_53" data-name="Caminho 53" d="M173.1,43.4h.849l1.415,3.962h0V43.4h.566v4.952h-.849l-1.415-3.82h0v3.82H173.1Z" transform="translate(70.236 15.35)" fill="#398ab4"/>
    <path id="Caminho_54" data-name="Caminho 54" d="M177.805,47.22H176.39l-.283,1.132H175.4l1.415-4.952h.849l1.273,4.952h-.707Zm-.141-.707-.566-2.264h0l-.566,2.264Z" transform="translate(71.19 15.35)" fill="#398ab4"/>
    <path id="Caminho_55" data-name="Caminho 55" d="M178.1,43.4h.707v4.245h1.415v.707H178.1Z" transform="translate(72.31 15.35)" fill="#398ab4"/>
    <path id="Caminho_56" data-name="Caminho 56" d="M180.8,43.4h1.132c.849,0,1.273.566,1.273,1.556s-.424,1.556-1.273,1.556h-.424v1.981H180.8Zm.99,2.405c.424,0,.707-.283.707-.849s-.141-.849-.707-.849h-.283v1.556C181.507,45.805,181.79,45.805,181.79,45.805Z" transform="translate(73.43 15.35)" fill="#398ab4"/>
    <path id="Caminho_57" data-name="Caminho 57" d="M184.705,47.22H183.29l-.283,1.132H182.3l1.415-4.952h.849l1.273,4.952h-.707Zm-.142-.707L184,44.249h0l-.566,2.264Z" transform="translate(74.052 15.35)" fill="#398ab4"/>
    <path id="Caminho_58" data-name="Caminho 58" d="M185,43.4h1.273a1.187,1.187,0,0,1,1.273,1.273c0,.707-.283,1.132-.849,1.132h0c.142,0,.283.141.424.566l.566,1.839h-.849l-.424-1.556c-.142-.424-.283-.566-.566-.566h-.142v2.122H185V43.4Zm.99,2.122a.668.668,0,0,0,.707-.707c0-.566-.283-.707-.707-.707h-.283v1.415Z" transform="translate(75.173 15.35)" fill="#398ab4"/>
    <path id="Caminho_59" data-name="Caminho 59" d="M189.405,47.22H187.99l-.283,1.132H187l1.415-4.952h.849l1.273,4.952h-.707Zm-.141-.707-.566-2.264h0l-.566,2.264Z" transform="translate(76.002 15.35)" fill="#398ab4"/>
    <path id="Caminho_60" data-name="Caminho 60" d="M192.605,47.22H191.19l-.283,1.132H190.2l1.415-4.952h.849l1.273,4.952h-.707Zm-.141-.707-.566-2.264h0l-.566,2.264Z" transform="translate(77.33 15.35)" fill="#398ab4"/>
    <path id="Caminho_61" data-name="Caminho 61" d="M192.883,47.362a1.2,1.2,0,0,0,.849.283.647.647,0,0,0,.566-.707c0-.424-.141-.566-.566-.707l-.424-.283a1.486,1.486,0,0,1-.707-1.273,1.187,1.187,0,0,1,1.273-1.273,5,5,0,0,1,.849.141v.707a1.06,1.06,0,0,0-.707-.141.518.518,0,0,0-.566.566.654.654,0,0,0,.424.707l.424.283a1.486,1.486,0,0,1,.707,1.273,1.38,1.38,0,0,1-1.415,1.556,2.045,2.045,0,0,1-.99-.283Z" transform="translate(78.325 15.35)" fill="#398ab4"/>
    <path id="Caminho_62" data-name="Caminho 62" d="M213.2,41.371l1.273-2.971h1.981l-1.981,2.971" transform="translate(86.872 13.276)" fill="#398ab4"/>
    <path id="Caminho_63" data-name="Caminho 63" d="M154,43.515l.707-1.415h.849l-.849,1.415" transform="translate(62.312 14.81)" fill="#398ab4"/>
    <path id="Caminho_64" data-name="Caminho 64" d="M55.82,8.8c2.971,0,5.518,2.264,5.518,7.64s-2.688,7.64-5.518,7.64S50.3,21.817,50.3,16.44C50.16,11.064,52.848,8.8,55.82,8.8m0,13.3c1.556,0,2.971-1.415,2.971-5.518s-1.273-5.518-2.971-5.518-2.971,1.415-2.971,5.518c0,3.962,1.273,5.518,2.971,5.518" transform="translate(19.289 0.996)" fill="#398ab4"/>
    <path id="Caminho_65" data-name="Caminho 65" d="M59.441,13.581a7.475,7.475,0,0,0-.141-1.839h2.264c0,.707.141,1.415.141,1.981h0A2.936,2.936,0,0,1,64.393,11.6h.424v2.547c-.283,0-.424-.141-.707-.141-.99,0-2.122.707-2.122,2.688v6.084H59.441" transform="translate(23.025 2.157)" fill="#398ab4"/>
    <path id="Caminho_66" data-name="Caminho 66" d="M64.366,24.434a6.61,6.61,0,0,0,2.971.99c2.405,0,2.688-1.7,2.688-3.4v-.99h0a2.867,2.867,0,0,1-2.688,1.839c-1.415,0-3.537-.99-3.537-5.518,0-2.971.99-5.659,3.679-5.659a2.687,2.687,0,0,1,2.688,1.839h.141a6.888,6.888,0,0,1,.141-1.7h2.122c0,.566-.141,1.132-.141,1.7V21.6c0,3.4-.99,5.942-4.811,5.942a8.37,8.37,0,0,1-3.537-.707m3.82-6.084c1.556,0,2.122-1.132,2.122-3.679,0-2.264-.849-3.537-1.981-3.537-1.273,0-1.839,1.273-1.839,3.537.142,2.547.849,3.679,1.7,3.679" transform="translate(24.892 2.199)" fill="#398ab4"/>
    <path id="Caminho_67" data-name="Caminho 67" d="M71.99,12.449a7.6,7.6,0,0,1,3.254-.849c3.254,0,3.962,1.7,3.962,4.386V20.8c0,.849.141,1.556.141,1.981H77.084a5.305,5.305,0,0,1-.141-1.556h0a3.323,3.323,0,0,1-2.83,1.7A3.084,3.084,0,0,1,71,19.665c0-2.971,2.264-3.679,5.376-3.679h.566v-.424a1.892,1.892,0,0,0-1.981-2.122,4.4,4.4,0,0,0-2.83,1.132M76.8,17.4h-.141c-2.122,0-3.4.424-3.4,2.122a1.526,1.526,0,0,0,1.556,1.7c1.415,0,1.981-1.132,1.981-3.113V17.4Z" transform="translate(27.879 2.157)" fill="#398ab4"/>
    <path id="Caminho_68" data-name="Caminho 68" d="M78.241,13.581a7.475,7.475,0,0,0-.141-1.839h2.264c0,.566.141,1.132.141,1.7h0A3.084,3.084,0,0,1,83.193,11.6c2.405,0,3.113,1.839,3.113,4.1v7.074H83.759v-6.65c0-1.7-.424-2.405-1.415-2.405-1.132,0-1.556,1.273-1.556,2.688v6.367H78.241" transform="translate(30.824 2.157)" fill="#398ab4"/>
    <path id="Caminho_69" data-name="Caminho 69" d="M85.5,8.4h2.547v2.547H85.5m0,2.122h2.547V24.1H85.5Z" transform="translate(33.894 0.83)" fill="#398ab4"/>
    <path id="Caminho_70" data-name="Caminho 70" d="M88.4,20.472l4.386-6.791H88.541V11.7h6.791v2.264l-4.386,6.791h4.528v1.981H88.4" transform="translate(35.097 2.199)" fill="#398ab4"/>
    <path id="Caminho_71" data-name="Caminho 71" d="M94.99,12.449a7.6,7.6,0,0,1,3.254-.849c3.254,0,3.962,1.7,3.962,4.386V20.8c0,.849.141,1.556.141,1.981h-2.264a5.305,5.305,0,0,1-.141-1.556h0a3.323,3.323,0,0,1-2.83,1.7A3.084,3.084,0,0,1,94,19.665c0-2.971,2.264-3.679,5.376-3.679h.566v-.424a1.892,1.892,0,0,0-1.981-2.122,4.4,4.4,0,0,0-2.83,1.132M99.8,17.4h-.141c-2.122,0-3.4.424-3.4,2.122a1.526,1.526,0,0,0,1.556,1.7c1.415,0,1.981-1.132,1.981-3.113V17.4Z" transform="translate(37.42 2.157)" fill="#398ab4"/>
    <path id="Caminho_72" data-name="Caminho 72" d="M108.3,22.536a5.638,5.638,0,0,1-2.405.424h-.141l-.424,1.132a5,5,0,0,1,.849-.141,1.526,1.526,0,0,1,1.7,1.556,2.076,2.076,0,0,1-2.264,1.981,6.95,6.95,0,0,1-2.122-.424l.283-.849a4.186,4.186,0,0,0,1.415.283c.707,0,.99-.424.99-.849a.913.913,0,0,0-.849-.849,1.532,1.532,0,0,0-.849.141l-.424-.424.566-1.839c-2.688-.424-3.82-2.83-3.82-5.518,0-3.113,1.556-5.659,4.952-5.659a6.95,6.95,0,0,1,2.122.424l-.141,2.122a3.467,3.467,0,0,0-1.7-.566c-1.839,0-2.688,1.273-2.688,3.679,0,1.981.849,3.679,2.83,3.679a3.034,3.034,0,0,0,1.7-.566" transform="translate(40.241 2.116)" fill="#398ab4"/>
    <path id="Caminho_73" data-name="Caminho 73" d="M107.69,13.611a7.6,7.6,0,0,1,3.254-.849c3.254,0,3.962,1.7,3.962,4.386v4.811c0,.849.141,1.556.141,1.981h-2.264a5.305,5.305,0,0,1-.141-1.556h0a3.323,3.323,0,0,1-2.83,1.7,3.084,3.084,0,0,1-3.113-3.254c0-2.971,2.264-3.679,5.376-3.679h.566v-.424a1.892,1.892,0,0,0-1.981-2.122,4.4,4.4,0,0,0-2.83,1.132m.141-4.245c0-.707.424-2.405,1.839-2.547.99,0,1.7.707,2.264.707.424,0,.566-.424.566-.849h1.273c0,.566-.424,2.547-1.839,2.547-.707,0-1.556-.707-2.264-.707-.566,0-.707.424-.707.849Zm4.528,7.074h-.283c-2.122,0-3.4.424-3.4,2.122a1.526,1.526,0,0,0,1.556,1.7c1.415,0,1.981-1.132,1.981-3.113l.141-.707Z" transform="translate(42.689 0.996)" fill="#398ab4"/>
    <path id="Caminho_74" data-name="Caminho 74" d="M118.228,11.6c2.122,0,4.528,1.132,4.528,5.659,0,4.669-2.405,5.659-4.528,5.659s-4.528-1.132-4.528-5.659,2.405-5.659,4.528-5.659m0,9.48c1.556,0,1.981-1.981,1.981-3.82s-.424-3.82-1.981-3.82-1.981,1.981-1.981,3.82.283,3.82,1.981,3.82" transform="translate(45.593 2.157)" fill="#398ab4"/>
    <path id="Caminho_75" data-name="Caminho 75" d="M50.6,22.2h3.962c2.83,0,4.386,1.7,4.386,4.528s-1.556,4.528-4.386,4.528H53.147v5.8H50.6M54,29.133c1.556,0,2.264-.849,2.264-2.405S55.552,24.322,54,24.322h-.99v4.952C53.147,29.133,54,29.133,54,29.133Z" transform="translate(19.415 6.555)" fill="#398ab4"/>
    <path id="Caminho_76" data-name="Caminho 76" d="M57.39,25.649a7.6,7.6,0,0,1,3.254-.849c3.254,0,3.962,1.7,3.962,4.386V34c0,.849.141,1.556.141,1.981H62.484a5.305,5.305,0,0,1-.141-1.556h0a3.323,3.323,0,0,1-2.83,1.7A3.084,3.084,0,0,1,56.4,32.865c0-2.971,2.264-3.679,5.376-3.679h.566v-.424a1.892,1.892,0,0,0-1.981-2.122,4.4,4.4,0,0,0-2.83,1.132M62.2,30.6h-.283c-2.122,0-3.4.424-3.4,2.122a1.526,1.526,0,0,0,1.556,1.7c1.415,0,1.981-1.132,1.981-3.113V30.6Z" transform="translate(21.822 7.633)" fill="#398ab4"/>
    <path id="Caminho_77" data-name="Caminho 77" d="M63.641,26.781a7.474,7.474,0,0,0-.141-1.839h2.264c0,.566.141,1.132.141,1.7h0A3.084,3.084,0,0,1,68.593,24.8c2.405,0,3.113,1.839,3.113,4.1v7.074H69.159v-6.65c0-1.7-.424-2.405-1.415-2.405-1.273,0-1.7,1.132-1.7,2.547v6.367H63.5" transform="translate(24.767 7.633)" fill="#398ab4"/>
    <rect id="Retângulo_131" data-name="Retângulo 131" width="4.669" height="2.122" transform="translate(98.171 36.537)" fill="#398ab4"/>
    <path id="Caminho_78" data-name="Caminho 78" d="M82.648,33.519H77.837l-.99,3.537H74.3L78.969,22.2H81.8l4.528,14.856H83.638M82.082,31.4l-1.7-6.933h0L78.4,31.4Z" transform="translate(29.248 6.555)" fill="#398ab4"/>
    <path id="Caminho_79" data-name="Caminho 79" d="M83.341,26.781a6.385,6.385,0,0,0-.141-1.839h2.547c0,.566.141,1.132.141,1.7h0A2.82,2.82,0,0,1,88.435,24.8a2.631,2.631,0,0,1,2.547,1.7,3.427,3.427,0,0,1,2.83-1.7c2.264,0,2.971,1.7,2.971,4.386v6.791H94.236V29.045c0-1.415-.424-1.981-1.273-1.981-1.132,0-1.7,1.132-1.7,2.264v6.65H88.718V29.045c0-1.415-.424-1.981-1.273-1.981-1.132,0-1.7,1.132-1.7,2.264v6.65H83.2" transform="translate(32.94 7.633)" fill="#398ab4"/>
    <path id="Caminho_80" data-name="Caminho 80" d="M101.782,35.411a6.648,6.648,0,0,1-3.113.707C95.415,36.119,94,33.572,94,30.6c0-3.254,1.556-5.8,4.245-5.8,2.264,0,4.1,1.415,4.1,5.8v.566H96.405c0,1.839.707,2.971,2.688,2.971a3.483,3.483,0,0,0,2.688-.849m-1.839-3.679q0-2.971-1.7-2.971c-1.273,0-1.839,1.415-1.839,2.971Z" transform="translate(37.42 7.633)" fill="#398ab4"/>
    <path id="Caminho_81" data-name="Caminho 81" d="M101.141,26.781A7.475,7.475,0,0,0,101,24.941h2.264c0,.707.141,1.273.141,1.981h0a2.936,2.936,0,0,1,2.688-2.122h.424v2.405c-.283,0-.424-.141-.707-.141-.99,0-2.122.707-2.122,2.688v6.084h-2.547" transform="translate(40.324 7.633)" fill="#398ab4"/>
    <path id="Caminho_82" data-name="Caminho 82" d="M105.9,21.6h2.547v2.547H105.9m.141,2.122h2.547V37.3h-2.547Z" transform="translate(42.357 6.306)" fill="#398ab4"/>
    <path id="Caminho_83" data-name="Caminho 83" d="M116.316,35.694a5.637,5.637,0,0,1-2.405.424c-3.4,0-4.811-2.547-4.811-5.659s1.556-5.659,4.952-5.659a8.016,8.016,0,0,1,2.122.424l-.141,2.122a3.466,3.466,0,0,0-1.7-.566c-1.839,0-2.688,1.415-2.688,3.679,0,1.981.849,3.679,2.83,3.679a3.034,3.034,0,0,0,1.7-.566" transform="translate(43.685 7.633)" fill="#398ab4"/>
    <path id="Caminho_84" data-name="Caminho 84" d="M115.69,25.649a7.6,7.6,0,0,1,3.254-.849c3.254,0,3.962,1.7,3.962,4.386V34c0,.849.141,1.556.141,1.981h-2.264a5.3,5.3,0,0,1-.141-1.556h0a3.323,3.323,0,0,1-2.83,1.7,3.084,3.084,0,0,1-3.113-3.254c0-2.971,2.264-3.679,5.376-3.679h.566v-.424a1.892,1.892,0,0,0-1.981-2.122,4.4,4.4,0,0,0-2.83,1.132m4.811,2.83h-.283c-2.122,0-3.4.424-3.4,2.122a1.526,1.526,0,0,0,1.556,1.7c1.415,0,1.981-1.132,1.981-3.113l.141-.707Z" transform="translate(46.008 7.633)" fill="#398ab4"/>
    <path id="Caminho_85" data-name="Caminho 85" d="M121.941,26.781a7.474,7.474,0,0,0-.141-1.839h2.264c0,.566.141,1.132.141,1.7h0a2.908,2.908,0,0,1,2.688-1.839c2.405,0,3.113,1.839,3.113,4.1v7.074h-2.547v-6.65c0-1.7-.424-2.405-1.415-2.405-1.273,0-1.7,1.132-1.7,2.547v6.367H121.8" transform="translate(48.953 7.633)" fill="#398ab4"/>
    <path id="Caminho_86" data-name="Caminho 86" d="M129.69,25.649a7.6,7.6,0,0,1,3.254-.849c3.254,0,3.962,1.7,3.962,4.386V34c0,.849.142,1.556.142,1.981h-2.264a5.305,5.305,0,0,1-.141-1.556h0a3.323,3.323,0,0,1-2.83,1.7,3.084,3.084,0,0,1-3.113-3.254c0-2.971,2.264-3.679,5.376-3.679h.566v-.424a1.892,1.892,0,0,0-1.981-2.122,4.4,4.4,0,0,0-2.83,1.132m4.811,2.83h-.283c-2.122,0-3.4.424-3.4,2.122a1.526,1.526,0,0,0,1.556,1.7c1.415,0,1.981-1.132,1.981-3.113l.141-.707Z" transform="translate(51.816 7.633)" fill="#398ab4"/>
    <path id="Caminho_87" data-name="Caminho 87" d="M58.931,34.641V48.79a6.384,6.384,0,0,0,.141,1.839H56.808c0-.283-.141-.99-.141-1.7h0a2.687,2.687,0,0,1-2.688,1.839c-2.547,0-3.679-2.547-3.679-5.659,0-3.537,1.273-5.659,3.537-5.659a2.918,2.918,0,0,1,2.688,1.7h0V34.5M54.4,48.932c1.415,0,1.981-1.7,1.981-3.82s-.566-3.679-1.981-3.679-1.839,1.415-1.839,3.679c0,2.547.424,3.82,1.839,3.82" transform="translate(19.291 11.658)" fill="#398ab4"/>
    <path id="Caminho_88" data-name="Caminho 88" d="M58.39,38.849A7.6,7.6,0,0,1,61.645,38c3.254,0,3.962,1.7,3.962,4.386V47.2c0,.849.141,1.556.141,1.981H63.484a5.305,5.305,0,0,1-.141-1.556h0a3.323,3.323,0,0,1-2.83,1.7A3.084,3.084,0,0,1,57.4,46.065c0-2.971,2.264-3.679,5.376-3.679h.566v-.424a1.892,1.892,0,0,0-1.981-2.122,4.4,4.4,0,0,0-2.83,1.132m4.811,2.83h-.283c-2.122,0-3.4.424-3.4,2.122a1.526,1.526,0,0,0,1.556,1.7c1.415,0,1.981-1.132,1.981-3.113V43.8Z" transform="translate(22.236 13.11)" fill="#398ab4"/>
    <path id="Caminho_89" data-name="Caminho 89" d="M68.283,47.468a6.018,6.018,0,0,0,2.971.99,2,2,0,0,0,2.122-2.122c0-1.132-.566-1.556-1.839-2.264l-1.273-.707A4.206,4.206,0,0,1,68,39.4a4.083,4.083,0,0,1,4.386-4.1,8.953,8.953,0,0,1,2.971.566l-.141,2.264a5.612,5.612,0,0,0-2.688-.707c-1.273,0-1.981.707-1.981,1.7,0,1.132.707,1.556,1.415,1.981l1.556.849a4.012,4.012,0,0,1,2.405,3.962c0,2.971-1.981,4.528-4.669,4.528a5.593,5.593,0,0,1-3.113-.707" transform="translate(26.634 11.989)" fill="#398ab4"/>
    <path id="Caminho_90" data-name="Caminho 90" d="M75.59,38.849A7.6,7.6,0,0,1,78.845,38c3.254,0,3.962,1.7,3.962,4.386V47.2c0,.849.141,1.556.141,1.981H80.684a5.3,5.3,0,0,1-.141-1.556h0a3.323,3.323,0,0,1-2.83,1.7A3.084,3.084,0,0,1,74.6,46.065c0-2.971,2.264-3.679,5.376-3.679h.566v-.424a1.892,1.892,0,0,0-1.981-2.122,4.4,4.4,0,0,0-2.83,1.132M80.4,43.8h-.283c-2.122,0-3.4.424-3.4,2.122a1.526,1.526,0,0,0,1.556,1.7c1.415,0,1.981-1.132,1.981-3.113V43.8Z" transform="translate(29.372 13.11)" fill="#398ab4"/>
    <path id="Caminho_91" data-name="Caminho 91" d="M89.965,48.683a7.475,7.475,0,0,0,.141,1.839H87.7c0-.566-.141-1.132-.141-1.7h0a2.867,2.867,0,0,1-2.688,1.839c-2.405,0-2.971-1.839-2.971-4.1V39.486h2.547v6.65c0,1.7.424,2.405,1.415,2.405,1.273,0,1.7-1.273,1.7-2.688V39.628h2.547M86,35.1h2.264l-1.981,3.113H84.73Z" transform="translate(32.401 11.906)" fill="#398ab4"/>
    <path id="Caminho_92" data-name="Caminho 92" d="M97.431,34.641V48.79a6.384,6.384,0,0,0,.141,1.839H95.308c0-.283-.141-.99-.141-1.7h0a2.687,2.687,0,0,1-2.688,1.839c-2.547,0-3.679-2.547-3.679-5.659,0-3.537,1.273-5.659,3.537-5.659a2.918,2.918,0,0,1,2.688,1.7h0V34.5M93.045,48.932c1.415,0,1.981-1.7,1.981-3.82s-.566-3.679-1.981-3.679-1.839,1.415-1.839,3.679c0,2.547.424,3.82,1.839,3.82" transform="translate(35.263 11.658)" fill="#398ab4"/>
    <path id="Caminho_93" data-name="Caminho 93" d="M104.023,48.711a6.648,6.648,0,0,1-3.113.707c-3.254,0-4.811-2.547-4.811-5.518,0-3.254,1.556-5.8,4.245-5.8,2.264,0,4.1,1.415,4.1,5.8v.566H98.505c0,1.839.707,2.971,2.688,2.971a3.483,3.483,0,0,0,2.688-.849m-1.839-3.82q0-2.971-1.7-2.971c-1.273,0-1.839,1.415-1.839,2.971Z" transform="translate(38.292 13.151)" fill="#398ab4"/>
    <path id="Caminho_94" data-name="Caminho 94" d="M34.078,65.824c-16.7,0-30.278-13.3-30.278-29.712S17.383,6.4,34.078,6.4,64.356,19.7,64.356,36.112c0,16.271-13.583,29.712-30.278,29.712m0-58.151c-15.846,0-28.863,12.734-28.863,28.3s12.875,28.3,28.863,28.3,28.863-12.734,28.863-28.3-13.017-28.3-28.863-28.3" transform="translate(0 0)" fill="#398ab4"/>
    <path id="Caminho_95" data-name="Caminho 95" d="M31.8,55.212c-12.451,0-22.5-9.621-22.5-21.506S19.346,12.2,31.8,12.2s22.5,9.621,22.5,21.506S44.247,55.212,31.8,55.212m0-41.6c-11.6,0-20.94,8.914-20.94,20.091,0,11.036,9.338,20.091,20.94,20.091s20.94-9.055,20.94-20.091S43.4,13.615,31.8,13.615" transform="translate(2.282 2.406)" fill="#398ab4"/>
    <path id="Caminho_96" data-name="Caminho 96" d="M8.881,20.1l.424,1.415H10.72l-.99.849.424,1.273-1.273-.99-1.273.99.566-1.273L6.9,21.515H8.315" transform="translate(1.286 5.684)" fill="#398ab4"/>
    <path id="Caminho_97" data-name="Caminho 97" d="M10.379,23.945,8.964,22.813l-1.132.99-.141-.141.424-1.273L6.7,21.4H8.4l.707-1.7.283,1.839h1.556l-1.132.99m-2.547-.707L8.4,22.53l-.424,1.132.99-.99,1.132.849-.283-1.132.849-.707H9.388l-.283-1.273-.566,1.273Z" transform="translate(1.203 5.518)" fill="#398ab4"/>
    <path id="Caminho_98" data-name="Caminho 98" d="M41.481,34.6l.424,1.556H43.32l-.99.707.424,1.273-1.273-.99-1.273,1.132.566-1.415L39.5,36.156h1.415" transform="translate(14.81 11.699)" fill="#398ab4"/>
    <path id="Caminho_99" data-name="Caminho 99" d="M42.979,38.5l-1.415-1.132-1.273.99h0l.424-1.273L39.3,36.1H41l.707-1.7.424,1.556h1.556l-1.132.99m-2.688-.707L41,36.947l-.566,1.132.99-.99,1.132.849-.283-1.132.849-.707H41.847l-.283-1.273L41,36.1Z" transform="translate(14.728 11.616)" fill="#398ab4"/>
    <path id="Caminho_100" data-name="Caminho 100" d="M9.981,34.4l.424,1.415H11.82l-.99.849.424,1.273-1.273-.99L8.707,38.079l.566-1.415L8,35.815l1.415.141" transform="translate(1.742 11.616)" fill="#398ab4"/>
    <path id="Caminho_101" data-name="Caminho 101" d="M11.479,38.345l-1.415-1.132L8.79,38.2h0l.424-1.415L7.8,35.8H9.5l.707-1.7.424,1.556h1.556l-1.273,1.132m-2.547-.707.99.707L8.932,37.92l.99-.99,1.132.849-.283-.99.849-.707H10.488l-.283-1.273L9.5,36.081Z" transform="translate(1.659 11.492)" fill="#398ab4"/>
    <path id="Caminho_102" data-name="Caminho 102" d="M42.822,19.3l.566,1.556h1.273l-1.132.707.424,1.273-1.132-.99-1.273,1.132.424-1.415L40.7,20.856h1.556" transform="translate(15.308 5.352)" fill="#398ab4"/>
    <path id="Caminho_103" data-name="Caminho 103" d="M44.179,23.245l-1.273-1.273L41.632,23.1l-.141-.141.424-1.273L40.5,20.7h1.7l.707-1.7.566,1.556h1.415L43.754,21.83m-2.688-.849,1.132.707-.424,1.132,1.132-.99.99.99-.283-.99.849-.707H43.33l-.424-1.273-.566,1.415Z" transform="translate(15.225 5.227)" fill="#398ab4"/>
    <path id="Caminho_104" data-name="Caminho 104" d="M26.5,27.4h.424" transform="translate(9.417 8.712)" fill="#398ab4"/>
    <path id="Caminho_105" data-name="Caminho 105" d="M15.893,39.839l.566.566-2.971,3.254-.707-.707.849-3.4h0L11.507,41.82l-.707-.566L13.913,38l.707.707-.849,3.4h0" transform="translate(2.904 13.11)" fill="#398ab4"/>
    <path id="Caminho_106" data-name="Caminho 106" d="M26.29,12.545,25.3,12.4l1.981-4.1,1.132.141,1.132,4.386-.99-.141-.141-.849-1.7-.141M27,10.988l1.132.141L27.705,9.29h0Z" transform="translate(8.919 0.788)" fill="#398ab4"/>
    <path id="Caminho_107" data-name="Caminho 107" d="M30.673,12.437l2.122.707-.283.707L29.4,13l1.556-4.1.849.283" transform="translate(10.62 1.037)" fill="#398ab4"/>
    <path id="Caminho_108" data-name="Caminho 108" d="M36.054,14.5a1.568,1.568,0,0,1-2.405.424A1.467,1.467,0,0,1,32.8,13.8a1.347,1.347,0,0,1,.283-.99L34.639,10.4l.849.424L33.932,13.23a.829.829,0,0,0,.141,1.132c.566.283.99.283,1.273-.283L36.9,11.673l.849.566" transform="translate(12.031 1.659)" fill="#398ab4"/>
    <path id="Caminho_109" data-name="Caminho 109" d="M36.707,17.069,36,16.5l2.405-2.688-1.132-.849.566-.566,2.83,2.264-.566.566-.99-.849" transform="translate(13.358 2.489)" fill="#398ab4"/>
    <path id="Caminho_110" data-name="Caminho 110" d="M22.8,11.518c0,.283.283.707.99.566a.792.792,0,0,0,.849-.707c0-.283-.424-.424-.849-.424h-.424c-.707,0-1.415-.141-1.556-.99-.141-.424,0-1.415,1.415-1.556s1.839.566,1.981,1.132l-.849.141c0-.141-.141-.566-.99-.566a.647.647,0,0,0-.707.566c0,.283.283.424.566.424l1.132.141a1.362,1.362,0,0,1,1.415.99c.283,1.273-1.132,1.556-1.556,1.7-1.556.283-1.981-.566-2.122-1.132" transform="translate(7.455 0.824)" fill="#398ab4"/>
    <path id="Caminho_111" data-name="Caminho 111" d="M15.633,10.777a2.123,2.123,0,0,1,2.971.99,1.945,1.945,0,0,1-.849,2.971,2.123,2.123,0,0,1-2.971-.99,2.131,2.131,0,0,1,.849-2.971m1.839,3.254a1.243,1.243,0,0,0,.424-1.839,1.4,1.4,0,0,0-1.839-.849,1.146,1.146,0,0,0-.283,1.839c.566,1.132,1.273,1.132,1.7.849" transform="translate(4.438 1.707)" fill="#398ab4"/>
    <path id="Caminho_112" data-name="Caminho 112" d="M10.8,15l1.556-1.556a1.2,1.2,0,0,1,1.839-.141,1.1,1.1,0,0,1,.283,1.132c.424-.141.566-.141,1.132.283.424.424.566.566.707.424l.141.141-.707.707c-.141-.141-.424-.283-.707-.566-.424-.424-.566-.566-1.132,0l-.707.707,1.273,1.132-.566.566m-.283-2.971c.283-.283.424-.566,0-.849-.141-.141-.424-.283-.849.141L11.932,15l.849.849Z" transform="translate(2.904 2.715)" fill="#398ab4"/>
    <path id="Caminho_113" data-name="Caminho 113" d="M34.505,41.224l.707-.424,2.122,3.679-.707.566-3.113-1.839h-.141l1.556,2.688-.707.424L32.1,42.5l.849-.424,2.971,1.7h0" transform="translate(11.741 14.271)" fill="#398ab4"/>
    <path id="Caminho_114" data-name="Caminho 114" d="M34.9,40.746l1.556-1.132a1.81,1.81,0,0,1,2.688.566c.566.707,1.132,1.981,0,2.83l-1.556,1.132m.283-1.132.707-.566c.566-.424.283-1.132-.141-1.7-.849-.99-1.415-.707-1.7-.424l-.707.566Z" transform="translate(12.902 13.618)" fill="#398ab4"/>
    <path id="Caminho_115" data-name="Caminho 115" d="M41.362,40.63l-.707.707L37.4,38.507l.566-.707" transform="translate(13.939 13.027)" fill="#398ab4"/>
    <path id="Caminho_116" data-name="Caminho 116" d="M42.652,18.071l-1.415-1.839-.707.566L41.8,18.5l-.707.424-1.273-1.556-.849.566,1.415,1.981-.566.424L37.7,17.788,41.237,15.1l1.981,2.547" transform="translate(14.064 3.609)" fill="#398ab4"/>
    <path id="Caminho_117" data-name="Caminho 117" d="M17.556,41.025a2.117,2.117,0,0,1,.424,3.113,2.15,2.15,0,0,1-3.113.707,1.988,1.988,0,0,1-.424-2.971c1.132-1.839,2.547-1.273,3.113-.849m-2.264,3.113c.424.283,1.132.424,1.839-.566s.283-1.556-.141-1.839-1.132-.424-1.839.566a1.165,1.165,0,0,0,.141,1.839" transform="translate(4.213 14.187)" fill="#398ab4"/>
    <path id="Caminho_118" data-name="Caminho 118" d="M20.671,42.79l.849.424-2.971,3.4-.849-.283.283-4.528.849.283-.283,3.4h0" transform="translate(5.767 14.686)" fill="#398ab4"/>
    <path id="Caminho_119" data-name="Caminho 119" d="M21.19,47.286,20.2,47l1.273-4.1.849.283" transform="translate(6.804 15.142)" fill="#398ab4"/>
    <path id="Caminho_120" data-name="Caminho 120" d="M29.628,47.445h-.849l-.141-3.537H28.5l-.566,3.679h-.849l-1.132-3.537h0l.283,3.679h-.849L25.1,43.483l1.273-.141,1.132,3.4h0l.566-3.537h1.273" transform="translate(8.837 15.267)" fill="#398ab4"/>
    <path id="Caminho_121" data-name="Caminho 121" d="M33.245,45.13c.283,1.132-.283,1.7-1.415,1.981a2.049,2.049,0,0,1-1.556-.141c-.283-.141-.424-.566-.566-.99L29,43.29l.99-.283L30.7,45.7a.905.905,0,0,0,.99.707c.566-.141.849-.566.707-.99l-.707-2.83.99-.283" transform="translate(10.454 14.893)" fill="#398ab4"/>
    <path id="Caminho_122" data-name="Caminho 122" d="M12.345,19.981l-.566.707L8.1,18.283l1.132-1.7a1.269,1.269,0,0,1,1.981-.283,1.543,1.543,0,0,1,.424,1.981l-.566.849M10.93,18a.632.632,0,0,0-.141-.99c-.424-.283-.707-.141-.99.283L9.373,18l1.132.707Z" transform="translate(1.784 3.963)" fill="#398ab4"/>
    <path id="Caminho_123" data-name="Caminho 123" d="M28.632,39.319c.283.707-.566.566-.849.849H27.5c.141-.424.566-1.132,1.132-.849" transform="translate(9.832 13.63)" fill="#398ab4"/>
    <path id="Caminho_124" data-name="Caminho 124" d="M25.236,30.2v.283H24.1c-.141-.707.849-.849,1.132-.283" transform="translate(8.418 9.73)" fill="#398ab4"/>
    <path id="Caminho_125" data-name="Caminho 125" d="M26.3,25.09l.566-.707,1.556-.141.566-.141-.283.566L28,25.09v-.424h-.849l-.566.424" transform="translate(9.334 7.343)" fill="#398ab4"/>
    <path id="Caminho_126" data-name="Caminho 126" d="M29.19,24.241l.424-.141.566.283-.283.283-.566.141-.283.283-.283-.141-.424.141-.141-.283.424-.141-.141-.283.141-.141" transform="translate(10.123 7.343)" fill="#398ab4"/>
    <path id="Caminho_127" data-name="Caminho 127" d="M30.041,24.683l.283-.283h.566l-.141.283-.849.283" transform="translate(10.828 7.467)" fill="#398ab4"/>
    <path id="Caminho_128" data-name="Caminho 128" d="M26.941,25h.566l-.141.424H26.8" transform="translate(9.542 7.716)" fill="#398ab4"/>
    <path id="Caminho_129" data-name="Caminho 129" d="M29.8,25.083l.424-.283.141.141-.141.283" transform="translate(10.786 7.633)" fill="#398ab4"/>
    <path id="Caminho_130" data-name="Caminho 130" d="M29.6,25.524l.283.424.283-.141-.141-.707" transform="translate(10.703 7.758)" fill="#398ab4"/>
    <path id="Caminho_131" data-name="Caminho 131" d="M30.524,25.766l.141-.283L30.1,25.2" transform="translate(10.911 7.799)" fill="#398ab4"/>
    <line id="Linha_7" data-name="Linha 7" y1="0.283" x2="0.141" transform="translate(41.435 33.282)" fill="none"/>
    <path id="Caminho_132" data-name="Caminho 132" d="M30.841,25.4h.283l-.141.99-.283-.849" transform="translate(11.16 7.882)" fill="#398ab4"/>
    <path id="Caminho_133" data-name="Caminho 133" d="M27.8,16.547c.283-.283,0-1.273-.283-1.415-.424.566.849.99,0,1.415M29.78,19.8a3.859,3.859,0,0,1,.283-2.122l.283-.283-.283.283-.566-.566.283-.283c-.424.141-.566-.283-.849-.566-.424.99,2.122,2.405-.283,2.405-.141-.141-.424-.283-.283-.566h-.283v.283h.283a.735.735,0,0,1-.566.283c0,.283,0,.707-.283.849h.566c.141.141.424.283.283.566.424.141.99-.283,1.132.283a.735.735,0,0,1,.283-.566m2.971,13.158a5.554,5.554,0,0,1,1.839-.849c-.141.283.141.424.283.566.566-.707.99-.141,1.415.283a1.517,1.517,0,0,0,.849.283c0-.141,0-.141.141-.283h.283c.424.99,1.981,1.556,2.122,2.688.99.424,2.405.141,3.113,1.132,1.981,2.122-2.405,2.971-1.7,5.235-.424,1.415-1.415,1.7-2.83,1.839-.424,1.132-1.273,1.556-2.264,2.122-1.415,0-1.556.99-2.83,1.415-.424,1.415-1.7,1.839-1.981,3.254.283.424.99.141.849.849-.99,0-2.264-.566-2.264-1.7.424-3.113,2.688-5.376,2.83-8.489-1.556-1.132-1.839-3.254-1.7-5.235.99-.566.707-1.415,1.132-2.122l-.566-.566c-.566.849-.99-.424-1.7,0a1.073,1.073,0,0,0-.283-.566c-.283-.424-.849-.707-1.132-1.132a9.629,9.629,0,0,1-3.4-1.132c-1.273-.141-.566-1.556-1.7-1.981-.141.141-.424.283-.283.566-1.839-.424-1.132-2.405-1.981-3.537a3.608,3.608,0,0,0,0-2.122,5.913,5.913,0,0,0-.566-1.415c-1.839-1.981-3.82,1.415-5.942.283a2.438,2.438,0,0,0,1.981-1.132c-.141-.283-.707-.424-.566-.849l.283-.283-.283-.283.283-.283c-.141-.141-.424-.283-.283-.566,1.132-.849,2.547-1.981,4.245-1.981,1.273-.424,3.113.99,4.245-.566-.566,0-1.273-.849-.566-1.273.424,0,.849-.707,1.132,0,.283-.141.283-.566.283-.849.99-.566,1.981.99,2.264-.283h.566c-.141.283.141.424.283.566l.283-.283.283.283c.707-.707,1.273.707,2.264.283a3.823,3.823,0,0,1,1.415,2.405c-.283,0-.707-.141-.849.283l1.132,1.132c.424-.141.283-.566.283-.849,1.415.707,2.122,2.122,2.83,3.254A5.485,5.485,0,0,0,32.327,23.2c.849,2.264-2.83,2.122-1.132,4.386l-.566.566a2.514,2.514,0,0,0-.566-1.415c-1.415.99-4.1-.99-3.679,1.981.424.283.424.849.849,1.132.707.283.99-.566,1.415-.849v-.283H29.78c.566.99-1.273,2.122.566,2.405,0,.283.141.707-.283.849a.722.722,0,0,0,.707.566H31.9a.735.735,0,0,1,.566.283c0,.283.141.141.283.141" transform="translate(4.439 3.153)" fill="#398ab4"/>
    <path id="Caminho_134" data-name="Caminho 134" d="M42.2,23.5h.99a1.194,1.194,0,0,1,.99.283,1.026,1.026,0,0,1,0,1.415,2.045,2.045,0,0,1-.99.283h-.141v.99h-.707m.707-1.7h.141c.283,0,.566-.141.566-.424a.375.375,0,0,0-.424-.424h-.283v.849Z" transform="translate(15.931 7.094)" fill="#398ab4"/>
    <path id="Caminho_135" data-name="Caminho 135" d="M43.39,28.522l-.141.707H42.4l.849-2.83h.99l.849,2.83h-.849l-.141-.707m0-.566-.141-.566c0-.141-.141-.424-.141-.566h0c0,.141-.141.424-.141.566l-.141.566Z" transform="translate(16.014 8.297)" fill="#398ab4"/>
    <path id="Caminho_136" data-name="Caminho 136" d="M42.949,29.2v1.132H43.8V29.2h.849v2.971H43.8V31.039h-.849v1.132H42.1V29.2" transform="translate(15.889 9.459)" fill="#398ab4"/>
    <path id="Caminho_137" data-name="Caminho 137" d="M44.23,33.515a1.38,1.38,0,0,1-1.415,1.556A1.418,1.418,0,0,1,41.4,33.656,1.454,1.454,0,0,1,42.815,32.1a1.333,1.333,0,0,1,1.415,1.415m-1.981.141c0,.566.283.849.566.849.424,0,.566-.424.566-.849s-.283-.849-.566-.849c-.424-.141-.566.283-.566.849" transform="translate(15.599 10.662)" fill="#398ab4"/>
    <path id="Caminho_138" data-name="Caminho 138" d="M9.33,26.015a1.38,1.38,0,0,1-1.415,1.556A1.418,1.418,0,0,1,6.5,26.156,1.454,1.454,0,0,1,7.915,24.6,1.418,1.418,0,0,1,9.33,26.015m-2.122,0c0,.566.283.849.566.849.424,0,.566-.424.566-.849s-.283-.849-.566-.849-.566.424-.566.849" transform="translate(1.12 7.55)" fill="#398ab4"/>
    <path id="Caminho_139" data-name="Caminho 139" d="M6.4,27.9h.99a1.194,1.194,0,0,1,.99.283c.141,0,.283.283.283.566a1.081,1.081,0,0,1-.283.707,2.045,2.045,0,0,1-.99.283H7.249v.99H6.4m.849-1.556H7.39c.283,0,.566-.141.566-.424a.375.375,0,0,0-.424-.424H7.249Z" transform="translate(1.079 8.919)" fill="#398ab4"/>
    <path id="Caminho_140" data-name="Caminho 140" d="M7.383,32.822a1.06,1.06,0,0,0,.707.141c.283,0,.424-.141.424-.283S8.373,32.4,8.09,32.4q-.849-.212-.849-.849c0-.566.424-.849,1.132-.849a1.8,1.8,0,0,1,.849.141l-.141.566a2.878,2.878,0,0,0-.707-.141c-.283,0-.424.141-.424.283s.141.141.566.283c.566.141.707.424.707.849a1.147,1.147,0,0,1-1.273.99c-.283,0-.707-.141-.849-.141" transform="translate(1.369 10.081)" fill="#398ab4"/>
    <path id="Caminho_141" data-name="Caminho 141" d="M202.684,47.731h-3.113l-.707,2.547H196.6L199.854,39.1H202.4l3.254,11.177H203.25m-2.122-9.055h0l-1.273,4.669h2.264Z" transform="translate(79.985 13.566)" fill="#398ab4"/>
  </g>
</svg>
